<svg id="Ñëîé_1" data-name="Ñëîé 1" xmlns="http://www.w3.org/2000/svg" viewBox="0 0 1633.21 854.79"><defs><style>.cls-1{fill:#fff;}.cls-2{fill:#ddceb6;}.cls-3{fill:#76c4a4;}.cls-4{fill:#a9ead1;}.cls-5{fill:#af7f4f;}.cls-6{fill:#7f5230;}.cls-7{fill:#c0fce3;}.cls-8{fill:#6b4428;}.cls-9{fill:#e89d25;}.cls-10{fill:#6b371b;}.cls-11{fill:#f4bb82;}.cls-12{fill:#c63b1a;}.cls-13{fill:#e58e63;}.cls-14{fill:#8e5930;}.cls-15{fill:#4c311e;}.cls-16{fill:#ffe7d7;}.cls-16,.cls-32,.cls-38{opacity:0.24;}.cls-17{fill:#bf1b1b;}.cls-18{fill:#e23d3d;}.cls-19{fill:#ea4a1f;}.cls-20{fill:#f4ab5d;}.cls-21{fill:#7a7974;}.cls-22{fill:#474642;}.cls-23{fill:#996e48;}.cls-24{fill:#ad8668;}.cls-25{fill:#565353;}.cls-26{fill:#a8120b;}.cls-27{fill:#f45a4a;}.cls-28{fill:#f9bb6e;}.cls-29{fill:#ef8e4d;}.cls-30{fill:#5e4226;}.cls-31{fill:#6b3904;}.cls-32{fill:#ffefc1;}.cls-33{fill:#e22003;}.cls-34{fill:#f64610;}.cls-35{fill:#ea3f24;}.cls-36{fill:#994f1d;}.cls-37{fill:#364142;}.cls-38{fill:#ffefca;}.cls-39{fill:#874010;}.cls-40{fill:#59390a;}.cls-41{fill:#aa391f;}.cls-42{fill:#ef4b35;}.cls-43{fill:#ffc1b3;}.cls-44{fill:#caf9f7;}</style></defs><title>childs-theraphy</title><rect class="cls-1" x="-175.25" y="-582.79" width="2000" height="2000"/><path class="cls-2" d="M1586.56,761.87c0,15.16-475.37,27.44-848.32,27.44S63,777,63,761.87s302.34-27.45,675.29-27.45S1586.56,746.71,1586.56,761.87Z"/><path class="cls-3" d="M769.2,235.59H280c-62,0-112.23,67.5-112.23,150.77V530.65H881.43V386.36C881.43,303.09,831.18,235.59,769.2,235.59Z"/><path class="cls-4" d="M825.06,235.59H349.39c-60.88,0-110.25,67.5-110.25,150.77V530.65H935.31V386.36C935.31,303.09,886,235.59,825.06,235.59Z"/><rect class="cls-5" x="342.58" y="693.28" width="52.95" height="59.85"/><rect class="cls-6" x="141.85" y="693.28" width="52.95" height="59.85"/><rect class="cls-6" x="836.29" y="693.28" width="52.95" height="59.85"/><rect class="cls-5" x="981.85" y="693.28" width="52.95" height="59.85"/><path class="cls-3" d="M193.66,386.36h0c-38.8,0-70.26,32.32-70.26,72.2v203H263.92V458.56a72.58,72.58,0,0,0-34-61.85A68.51,68.51,0,0,0,193.66,386.36Z"/><polygon class="cls-3" points="274.19 386.36 193.66 386.36 229.6 507.61 274.19 386.36"/><path class="cls-3" d="M975.07,386.36h0c-41.29,0-74.76,32.32-74.76,72.2v203h149.52V458.56c0-26.24-14.49-49.21-36.17-61.85A76.41,76.41,0,0,0,975.07,386.36Z"/><polygon class="cls-3" points="1049.83 386.36 975.07 386.36 1008.43 507.61 1049.83 386.36"/><path class="cls-4" d="M1048.54,386.36h0c-41.29,0-74.76,32.32-74.76,72.2v203H1123.3V458.56c0-26.24-14.49-49.21-36.17-61.85A76.39,76.39,0,0,0,1048.54,386.36Z"/><path class="cls-6" d="M1048.54,458.54h0c-19.63,0-35.54,21-35.54,46.92V637.34h71.08V505.46c0-17.06-6.89-32-17.2-40.2A29.24,29.24,0,0,0,1048.54,458.54Z"/><rect class="cls-6" x="123.4" y="661.51" width="165.67" height="31.77" transform="translate(412.48 1354.8) rotate(180)"/><path class="cls-7" d="M320.86,458.56H883.51a90.13,90.13,0,0,1,90.13,90.13v30.86a0,0,0,0,1,0,0H320.86a0,0,0,0,1,0,0v-121A0,0,0,0,1,320.86,458.56Z"/><rect class="cls-3" x="320.86" y="458.56" width="593.84" height="5.74"/><rect class="cls-5" x="278.11" y="573.59" width="699.3" height="119.7"/><path class="cls-4" d="M272,386.36h0c-41.29,0-74.76,32.32-74.76,72.2v203H346.78V458.56c0-26.24-14.5-49.21-36.17-61.85A76.41,76.41,0,0,0,272,386.36Z"/><path class="cls-6" d="M272,458.54h0c-19.63,0-35.54,21-35.54,46.92V637.34h71.07V505.46c0-17.06-6.88-32-17.19-40.2A29.24,29.24,0,0,0,272,458.54Z"/><path class="cls-5" d="M272,472.56h0c-15.62,0-28.29,18.06-28.29,40.35V626.34H300.3V512.91c0-14.67-5.48-27.5-13.68-34.57A22.28,22.28,0,0,0,272,472.56Z"/><path class="cls-5" d="M1048.54,472.56h0c-15.62,0-28.29,18.06-28.29,40.35V626.34h56.58V512.91c0-14.67-5.49-27.5-13.69-34.57A22.28,22.28,0,0,0,1048.54,472.56Z"/><rect class="cls-5" x="921.18" y="661.51" width="147.97" height="31.77" transform="translate(1990.32 1354.8) rotate(180)"/><rect class="cls-6" x="332.6" y="693.28" width="9.98" height="59.85"/><rect class="cls-6" x="972.43" y="693.28" width="9.98" height="59.85"/><rect class="cls-8" x="826.31" y="693.28" width="9.98" height="59.85"/><rect class="cls-8" x="131.87" y="693.28" width="9.98" height="59.85"/><rect class="cls-6" x="346.78" y="557.14" width="630.64" height="26.61" transform="translate(1324.19 1140.9) rotate(180)"/><path class="cls-9" d="M181.21,358.38s11.27-29.15,82.71-27.29,87-1.86,134.12,44.66,70.29,73.52,65.79,78.17S441.35,467,408.59,472.56a368.34,368.34,0,0,1-61.81,4.93s-1.13-74.44-41.6-85.61-61,2.6-95.7-5.52S176.21,365.3,181.21,358.38Z"/><path class="cls-10" d="M633.48,121.33,636,191.6s-2.44,44.64-28.28,50.13a155.77,155.77,0,0,1-49.56,1.91l8.62-115.41,56.49-27.86Z"/><path class="cls-11" d="M615.56,231.16s12.37,5.69,16.83,41.33,9.89,69.21,15.48,66.41,45.08-79,45.08-79l18.87,8.68s-27.75,87.3-56.26,111.53c-17.34,14.73-38.71-2.1-48.71-46.83S615.56,231.16,615.56,231.16Z"/><path class="cls-12" d="M581,518.5c.47-.08,25.85,2.44,44.55-4.9s-69.19-15.2-69.19-15.2Z"/><path class="cls-12" d="M575.9,707.67s21.94,33.41,23.16,35.85,8.38,6.82,9.08,11,1.4,7.34-14.5,7.34h-25s-4-.53-7-11.19S551,725.18,548.22,721s-5.94-8.1-6.29-13.31,4.68-11.21,4.68-11.21Z"/><path class="cls-11" d="M642.85,440.68s72,24,75.48,56.61c2.55,23.84-145.47,189.15-144.43,203s26.56,44.14,21,46-23.3-.93-24.7-3.73S546.41,703,546.41,697.4,622.8,551.8,656.13,512.48c3-3.59-61.67-9.57-65.46-15.89C549.65,428.1,642.85,440.68,642.85,440.68Z"/><path class="cls-13" d="M684,459.45s-11.71-3.39-19.4,5.69-7.45,25.16-7.45,25.16l-35.88-41,15.38-3.73Z"/><path class="cls-13" d="M668.57,461.68s-4.61,7.91-1.7,13.23,15,11.49,9.75,32.76c-3.07,12.49-93.43,119.71-93.43,119.71l4.27-7.71,64-151.73Z"/><path class="cls-12" d="M530.37,707.67s21.93,33.41,23.15,35.85,8.39,6.82,9.09,11,1.4,7.34-14.5,7.34h-25s-4-.53-7-11.19-10.66-25.5-13.46-29.7-5.94-8.1-6.29-13.31,4.68-11.21,4.68-11.21Z"/><path class="cls-11" d="M597.32,440.68s72,24,75.48,56.61c2.55,23.84-145.47,189.15-144.43,203s26.55,44.14,21,46-23.29-.93-24.69-3.73S500.88,703,500.88,697.4,577.27,551.8,610.6,512.48c3-3.59-61.27-9.83-65.46-15.89S597.32,440.68,597.32,440.68Z"/><path class="cls-13" d="M613.84,455.72s-25.37,10.18-28.69,26.6,18.3,27.27,18.3,27.27l-33.63-6-7.39-7.8s10.14-33.37,10.84-34.07,28.83-14.85,28.83-14.85Z"/><path class="cls-14" d="M531.19,57.13S515,60.54,507.63,114.72,490.89,238,490.89,238l61,.07s16.38-89.28,14.83-92.22S534,71.42,534,71.42Z"/><polygon class="cls-10" points="531.25 155.22 531.13 226.91 569.74 222.05 559.75 164.49 531.25 155.22"/><path class="cls-11" d="M575.68,181.64l3.77,32.85s-2.91,11-17.3,11.28a26.8,26.8,0,0,1-21.73-10.54L542,172.57Z"/><path class="cls-13" d="M540.93,201.48s10.85,5.25,23,2,13.41-7.37,13.41-7.37v-2.28L542,177.47Z"/><path class="cls-11" d="M625.63,132.41l-.52,3.86a132.56,132.56,0,0,1-13.7,43.34c-5.9,11.36-18.35,22.2-23.86,21.89-23.81-1.34-39.81-15.32-46.15-24.49s-10.15-21.79-10.15-21.79-11,1.68-14.87-14.74S520,121.66,520,121.66a13.06,13.06,0,0,1,10,1c5,2.8,5.9,4.55,5.9,4.55S531,93.64,538.31,78s43.41-25,70.46-5.68S625.63,132.41,625.63,132.41Z"/><path class="cls-13" d="M519,135.7s-.39-7.31,1.81-8.55,9.58,2.11,10.25,11-2.63,8.53-4.6,8-3.47-3.81-2.15-7.55,3-3.1,3-3.1-1.75-6.46-4.79-6.19-2.93,6.58-2.93,6.58Z"/><path class="cls-13" d="M602.17,156c.21-3.89-3.53-7.64-5.09-10.93a25.87,25.87,0,0,1-2.26-6.54c-.48-2.71,0-5.15.24-7.83a.2.2,0,0,0-.35-.15c-3.21,4.43-1.73,11.74.24,16.38a35.65,35.65,0,0,0,1.78,3.55c.88,1.55,3.18,4.2,2.27,6.12-.62,1.29-3.14,1.86-4.39,2a7.74,7.74,0,0,1-4.63-1,.64.64,0,0,0-.88.66c.12,3.3,4.28,3.74,6.74,3.2C598.84,160.79,602,159.45,602.17,156Z"/><path class="cls-14" d="M570.89,115c2.35-.23,5-.29,7.16.73.94.43,3.31,2.35,1.69,3.65-1.29,1-2.51.4-4,.18a24.15,24.15,0,0,0-5.44-.17,19.41,19.41,0,0,0-4.52.8c-1.45.46-2.78,1.71-4.27,1.8a1.15,1.15,0,0,1-1.23-1.33C561,116.45,567.74,115.34,570.89,115Z"/><path class="cls-14" d="M614.2,120.91a11.38,11.38,0,0,0-6.35-1.11c-.92.18-3.44,1.44-2.38,3.1.85,1.34,2.07,1,3.37,1.17a20.08,20.08,0,0,1,4.73,1.22,16.38,16.38,0,0,1,3.69,1.91c1.13.81,2,2.36,3.22,2.82a1.05,1.05,0,0,0,1.39-1C622.33,124.77,616.84,122,614.2,120.91Z"/><path class="cls-15" d="M611.43,133.57a2.33,2.33,0,0,1,.44.1h0l6.9.15-4.35,2.46h0a7,7,0,0,1,.36,3.43c-.42,3.07-2.59,5.31-4.86,5s-3.78-3-3.36-6.12S609.16,133.26,611.43,133.57Z"/><path class="cls-15" d="M568.92,127.8a3.43,3.43,0,0,1,.44.09h0l6.9.15-4.35,2.46h0a7,7,0,0,1,.36,3.43c-.42,3.08-2.59,5.32-4.86,5s-3.78-3.05-3.36-6.12S566.65,127.49,568.92,127.8Z"/><path class="cls-14" d="M560.39,85.36a35.32,35.32,0,0,1-3.48,25.58c-7.31,12.73-21,16.29-21,16.29s-5.69-4.78-9.55-5.42a20.09,20.09,0,0,0-5.27-.43s1.79-36.93,3.4-48.75,10.2-19.29,10.2-19.29,4.06-6.77,7.7-7.59a22.07,22.07,0,0,1,5.91-.63s-6.52,2.25-7.68,4.06a9.51,9.51,0,0,0-1.39,3.47s24.32-9.52,61.09,4.89,38.74,34.57,39,48.21-5.78,15.58-5.78,15.58-29.14-3.84-49.17-15.63S560.39,85.36,560.39,85.36Z"/><path class="cls-16" d="M606.07,62.05s14.27,7.22,7.85,14.17-66.41-7.65-66.41-7.65,6.15,6.51,9.78,8.56,39.6,12.81,61.57,13.44,9.75-16,3.93-19.89S606.07,62.05,606.07,62.05Z"/><path class="cls-17" d="M599.43,174.74s-.55,8.92-11.76,7.63-17.26-12.7-17.26-12.7L588.46,174Z"/><path class="cls-18" d="M601,173.83s-5.37,4.22-16.22,1.54a57.76,57.76,0,0,1-19-8.9s6.82,4.19,29.36,2.88C601.13,169,601,173.83,601,173.83Z"/><path class="cls-19" d="M580,213.15s33.1,11.18,35.61,18,2.23,35.42,5.44,44.51,9.1,19.65,8.93,33.53-18.15,24.39-21.74,32.53-20.55,57.43-9.78,71.93c4.93,6.65,67.1,35.83,83,44.26,14.47,7.69-32.53-15.78-72.66-.46s-43.84,50.85-34.94,55c23,10.76-8.45,3.95-8.45,3.95s-38.29-7.28-64.14-21.82-22.55-37.4-13.72-67.44c13.29-45.24,27.59-88.79,25.44-111.77S493.79,228,496.66,226.12s42.54-12.2,42.54-12.2,12.4,8.94,24.6,7.89S580,213.15,580,213.15Z"/><path class="cls-11" d="M527.13,217.11s14.22,38.28,47.07,44,18-43.43,18-43.43-9.9-3.62-11.37-5.78-2.45-6.56-2.45-6.56l-37.65,1s-.33,4-7.3,8.15A20.55,20.55,0,0,1,527.13,217.11Z"/><path class="cls-12" d="M540.48,321.18A46,46,0,0,0,564,326.54c13.28-.7,20.08-3.73,18.54-5.36s-23.67-5.36-33-4.66S530.12,317.18,540.48,321.18Z"/><path class="cls-11" d="M487.48,237.72s-46.82,98.08-39.83,138.2,110.42,74,114.78,77.53,41.26-1.83,52.44-2.87-4.29-12.34-18-17.7S564,437.07,564,437.07,487.48,386.75,485,363s23.38-74.21,23.38-74.21,7.93-20.83,4.5-41.1-7.53-24.53-7.53-24.53-9.17,1.64-12.67,5.66A31.65,31.65,0,0,0,487.48,237.72Z"/><path class="cls-11" d="M693,259.91s4.77-11,15.72-11.88,31.92,6.52,36.81,5.59,23.53-13,22.83-6.75-16.54,23.76-24.93,25.39-32-2.29-32-2.29Z"/><path class="cls-20" d="M1328.33,354.83s-33.83,35.61-44.37,21.56-46.1-88.75-46.1-88.75l-22,6.87s36.71,103.84,55.7,118.33,61.79-9.66,61.79-9.66Z"/><polygon class="cls-21" points="1148.73 324.58 1114.04 324.58 1196.59 389.13 1233.91 390.99 1148.73 324.58"/><path class="cls-22" d="M1237.86,386.49c-2.2-2.63-75.52-61.91-75.52-61.91h-13.61l86.06,71.57Z"/><path class="cls-20" d="M1163.86,451.9s-31.16-5.33-46.31,9S1053.63,695,1053.63,695l27.39-2.88s60.46-177.63,67-178.08,26.35,2.67,26.35,2.67l9.88-61.59Z"/><path class="cls-20" d="M1053.63,695s3.28-3.13,2.89-6.88l24.51,1.1v2.9l-21.14,67.34h-29.32l11.85-7.66Z"/><path class="cls-22" d="M1081,692.13l-21.14,67.34h-34s-3.52,1.28-3.52,7.82,5,5.27,20.18,5.27h23.7s3.68.48,7.52-11.81,11.21-38,11.21-38l10.09-4.63s5.61-13.08,1.44-18.83S1081,692.13,1081,692.13Z"/><polygon class="cls-22" points="1095.12 718.14 1085.99 772.66 1083.43 772.66 1085.03 722.77 1095.12 718.14"/><rect class="cls-23" x="1158.1" y="673.21" width="220.04" height="6.26"/><path class="cls-23" d="M1209.09,586.5,1105.4,751.83a9.08,9.08,0,0,0,5.75,14.19h0a9.09,9.09,0,0,0,8.39-2.85l125.28-163.85Z"/><path class="cls-23" d="M1366.37,619.14l62.49,134.12a9.08,9.08,0,0,1-8.23,12.91h0a9.09,9.09,0,0,1-7.73-4.32l-84-136.58Z"/><path class="cls-24" d="M1420.73,600.71l99.42,149.12a9.07,9.07,0,0,1-8.23,12.91h0a9.09,9.09,0,0,1-7.73-4.32L1379.31,610Z"/><path class="cls-24" d="M1261.47,619.14,1199,753.26a9.08,9.08,0,0,0,8.22,12.91h0a9.09,9.09,0,0,0,7.74-4.32l84-136.58Z"/><rect class="cls-24" x="1244.82" y="683.52" width="220.04" height="6.26"/><path class="cls-25" d="M1432.15,611.51l17.12,24.37s-26.89,15.37-127,15.37S1178.69,628,1178.69,628l19.43-28.76Z"/><path class="cls-26" d="M1542.38,348s-19.12-20.3-106.06,18.33-266.08,184.78-282.76,192.94S1135,583.42,1178,599.56,1485.5,455.13,1485.5,455.13Z"/><path class="cls-27" d="M1184.29,592.63s-13.22-9.54-10.73-23,9.75-34.24,37.08-34.24h60.92l-24.37,49.06Z"/><path class="cls-28" d="M1087.88,695s3.27-3.13,2.89-6.88l24.51,1.1v2.9l-21.14,67.34h-29.32l11.85-7.66Z"/><path class="cls-22" d="M1115.28,692.13l-21.14,67.34h-34s-3.52,1.28-3.52,7.82,5,5.27,20.17,5.27h23.71s3.68.48,7.52-11.81,11.21-38,11.21-38l10.09-4.63s5.61-13.08,1.44-18.83S1115.28,692.13,1115.28,692.13Z"/><polygon class="cls-22" points="1129.37 718.14 1120.24 772.66 1117.68 772.66 1119.28 722.77 1129.37 718.14"/><path class="cls-28" d="M1380.33,237.46l-4.41,37.77s3.21,5.13,16.33,5.5,20-9.77,20-9.77l-1.1-42.07Z"/><path class="cls-29" d="M1377.56,261.24a44.45,44.45,0,0,0,33.8-22.25l0-4.83L1378.86,250Z"/><path class="cls-28" d="M1340.3,178.53l0,3.86a131.14,131.14,0,0,0,7.22,44.38c4.16,12,14.8,24.35,20.24,24.83,23.5,2.09,41.16-9.31,48.67-17.39s13-19.88,13-19.88,10.52,3.22,16.66-12.3-.85-18.95-.85-18.95a12.92,12.92,0,0,0-9.91-.42c-5.29,2-6.42,3.62-6.42,3.62s9.58-32.19,4.63-48.54-38.94-30.67-68.17-15.61S1340.3,178.53,1340.3,178.53Z"/><path class="cls-29" d="M1444.23,197s1.43-7.09-.55-8.63-9.68.7-11.6,9.31,1.35,8.73,3.35,8.51,4-3.24,3.19-7.08-2.44-3.46-2.44-3.46,2.63-6.07,5.56-5.38,1.93,6.86,1.93,6.86Z"/><path class="cls-29" d="M1359.9,204.94c.36-3.84,4.55-7,6.55-10a26,26,0,0,0,3.15-6.08c.85-2.58.68-5,.87-7.7,0-.18.28-.28.37-.09,2.51,4.79,0,11.74-2.57,16a34.58,34.58,0,0,1-2.26,3.23c-1.08,1.39-3.71,3.66-3.08,5.67.42,1.35,2.8,2.26,4,2.62a7.66,7.66,0,0,0,4.68-.33.63.63,0,0,1,.76.77c-.58,3.21-4.72,3.05-7,2.17C1362.47,210.13,1359.58,208.38,1359.9,204.94Z"/><path class="cls-30" d="M1396.36,169.33a13.81,13.81,0,0,0-7.1-.31c-1,.29-3.58,1.83-2.18,3.34,1.12,1.2,2.4.74,3.85.73a24.66,24.66,0,0,1,5.35.61,19,19,0,0,1,4.31,1.44c1.36.65,2.48,2.07,3.92,2.37a1.13,1.13,0,0,0,1.39-1.13C1405.81,172.13,1399.41,170.08,1396.36,169.33Z"/><path class="cls-30" d="M1353.13,168.91a11.16,11.16,0,0,1,6.37-.18c.87.31,3.17,1.9,1.89,3.37-1,1.19-2.17.71-3.46.67a19.53,19.53,0,0,0-4.81.51,16.26,16.26,0,0,0-3.88,1.35c-1.23.63-2.26,2-3.56,2.3a1,1,0,0,1-1.22-1.15C1344.62,171.53,1350.39,169.6,1353.13,168.91Z"/><path class="cls-31" d="M1354,181.7l-.45,0h0l-6.77-.85,3.91,3h0a6.84,6.84,0,0,0-.85,3.3c0,3.07,1.78,5.58,4,5.6s4.13-2.45,4.16-5.52S1356.3,181.72,1354,181.7Z"/><path class="cls-31" d="M1396.48,182.11l-.45,0h0l-6.77-.84,3.9,3h0a6.91,6.91,0,0,0-.85,3.31c0,3.07,1.78,5.58,4,5.6s4.13-2.45,4.16-5.52S1398.74,182.14,1396.48,182.11Z"/><path class="cls-30" d="M1410.88,141.78a34.93,34.93,0,0,0-.25,25.54c5.34,13.5,18.29,19,18.29,19s6.25-3.87,10.12-3.95a19.57,19.57,0,0,1,5.22.33s3.52-36.41,3.63-48.21-7.24-20.33-7.24-20.33-3-7.22-6.45-8.53a21.77,21.77,0,0,0-5.69-1.47s6.06,3.14,6.93,5.07a9.46,9.46,0,0,1,.87,3.6s-22.45-12.79-60.5-3.93-42.86,28.31-45,41.63,3.43,16.08,3.43,16.08,29.07.4,50.36-8.29S1410.88,141.78,1410.88,141.78Z"/><path class="cls-32" d="M1369.49,112.45s-15,5-9.71,12.74,66.11,2,66.11,2-7,5.49-10.81,7-40.58,6.89-62.18,4.37-7.27-17-1-20S1369.49,112.45,1369.49,112.45Z"/><path class="cls-33" d="M1359.91,223.71s-.74,8.81,10.42,9.15,18.71-10,18.71-10l-18.29,1.62Z"/><path class="cls-34" d="M1358.46,222.59s4.65,4.89,15.66,3.82,14.92-3.52,14.92-3.52-18.35-3.23-24.21-3.85S1358.46,222.59,1358.46,222.59Z"/><polygon class="cls-20" points="1164.58 524.14 1211.99 541.92 1215.86 518.87 1173.8 508.99 1164.58 524.14"/><path class="cls-28" d="M1198.12,451.9s-31.17-5.33-46.32,9S1087.88,695,1087.88,695l27.4-2.88s60.45-177.63,67-178.08,36.22,16,36.22,16V455.13Z"/><path class="cls-22" d="M1377.33,275.41s-27.91,33.17-39.77,39.76S1311.29,339,1314,350.62s5.72,25.11,7.3,32.36-5.14,66.7-19.32,72.15-101.22-16.52-103.84-9.93S1206,473,1206.69,495s-21.19,52.66-15.54,53.13,90.08,17.56,90.08,17.56L1391.86,495s7.14-74.17,20.31-111.71,19.13-74.71,16.06-88.32-16-24-16-24Z"/><path class="cls-35" d="M1546.53,354.88s13.17,234.46-130.41,263.44-241-15.81-242.36-22.39,4-23,21.73-21.74,75.74-46.1,188.36-130.4S1539.94,329.19,1546.53,354.88Z"/><path class="cls-28" d="M1378.19,268a27.53,27.53,0,0,1-4.9,11.53c-4,5.12-25.73,27.79-25.73,27.79a95.78,95.78,0,0,0,33.25-15.72,337.11,337.11,0,0,1,31.4-20.62Z"/><path class="cls-28" d="M1395.59,315.36s-26.66,99.45-44.34,103-93.76-25.73-93.76-25.73l-12.67,20.68s80.08,51.14,117,37.65,66.55-98.69,73.57-126.79-8.54-32.5-18-30.73C1401,296.48,1395.59,315.36,1395.59,315.36Z"/><path class="cls-28" d="M1257.49,392.6s-7.12-13.45-15.46-18.94-16.9-4.67-20.86-6.1-7.9-.2-5.7,2.44,15.36,9.36,15.8,12.2-35.38-3.86-41.08-3.65-6.81,4.47-5.27,5.89a29,29,0,0,0,4.39,3.05s-1.54,2.85,2,4.88a24.38,24.38,0,0,0,7.47,2.64,8.75,8.75,0,0,0,5,4.07c3.51,1,5,0,5,0s-.22,2,3.73,3.05,35,12.88,35,12.88Z"/><path class="cls-20" d="M1238.41,288.79s-2.42-6.69-7.85-8.66-30.46,5.43-33.42,5.27-22.73-14.71-29.48-14.44.77,10.86,6.31,16.68,19.45,16.86,27.73,17.35,26.23-3.13,26.23-3.13Z"/><path class="cls-36" d="M744.22,239.32s-19.29,18.52-20.28,33.84,6.27,25.42,2.64,32.92-19.17,21.59-15.2,31.23,15.72,19.23,13.81,31.12-12.1,13.3-12.1,13.3,9.11,3.29,16.8-6.36,2.57-22.87,2.57-22.87,6,9.65,6,15.6,12.46,5.29,13,4.63,17.39-12.23,17.39-12.23l3.3-40.8Z"/><path class="cls-11" d="M704.81,462.43s-29.27,1.66-24.3,6.63,29,8.12,32,3.78S704.81,462.43,704.81,462.43Z"/><path class="cls-11" d="M875.52,462.43s29.27,1.66,24.3,6.63-29,8.12-32,3.78S875.52,462.43,875.52,462.43Z"/><path class="cls-11" d="M819.9,352.5s5.81,1.47,14.16,24.3,30.45,79.53,30.45,79.53l-19.88,4.1-26.88-57.86Z"/><path class="cls-11" d="M745.17,356.41s-5.81,1.47-14.17,24.3-30.44,79.52-30.44,79.52l19.88,4.1,26.88-57.85Z"/><path class="cls-37" d="M751.16,438.65S768.88,450.41,790,451s33.73-10.85,33.73-10.85l33.27.5-24.86,23.63-56.69,4.42-50.23-28.34Z"/><path class="cls-37" d="M810.11,458s30.83-14.88,46.86-17.39,25.69,4.65,28,17.39-2.73,21.89-30.64,25.3S810.11,458,810.11,458Z"/><path class="cls-11" d="M767.16,474s64-25.66,86.09-27.73,27.08,25.66,15.11,33.11-86.62,9.93-89.08,11.17-22.6,12-30.49,12.83S726.6,494.22,728.53,488,749.78,474.77,767.16,474Z"/><path class="cls-13" d="M803.14,460.43s25,6.16,36.07,11.27,16.91,11.37,16.91,11.37l-4.19.51-59.69,5.72-13,1.2-10.08,5.08-39.31-9.75,2.51-2.15Z"/><path class="cls-37" d="M774.36,458s-30.83-14.88-46.86-17.39-25.69,4.65-28,17.39,2.72,21.89,30.64,25.3S774.36,458,774.36,458Z"/><path class="cls-11" d="M817.31,474s-64-25.66-86.08-27.73-27.09,25.66-15.12,33.11,86.62,9.93,89.09,11.17,22.59,12,30.48,12.83,22.19-9.11,20.26-15.31S834.7,474.77,817.31,474Z"/><path class="cls-36" d="M740.85,252.82s-3.09,14.24-4.1,24.66,1.73,15.24,1.73,15.24l6.24-8.05Z"/><path class="cls-11" d="M765.45,335.18l.13,17.8s3.42,4.76,15.16,3.06,15.46-6.83,15.46-6.83l-4.13-25.06Z"/><path class="cls-13" d="M795.05,342.37a26.25,26.25,0,0,1-17,4.44c-10.19-.79-12.67-4.09-12.67-4.09l0-5.41,27.07-9.58Z"/><path class="cls-11" d="M739.71,282.84l-3.91,12.34S721.52,323.91,752,334.63c17.16,6,32.75,2.15,39.81-2.7s12.7-13.57,12.7-13.57,7.86,4,14.89-6.61,2-14.16,2-14.16a11,11,0,0,0-7.77-1.8c-4.46.7-5.58,1.71-5.58,1.71s12.09-22.4,10.47-35.26-26.28-27.93-51.65-21.84C736,247.8,739.71,282.84,739.71,282.84Z"/><path class="cls-13" d="M818.68,307.73s2.12-5,.77-6.48-7.74-.94-10.47,5.15-.16,6.67,1.45,6.81,3.58-1.81,3.52-4.77-1.45-2.93-1.45-2.93,2.93-4.1,5.15-3.15.56,5.38.56,5.38Z"/><path class="cls-13" d="M751.6,297.65c.72-2.3,4.39-3.59,6.32-5.13a15.08,15.08,0,0,0,3.18-3.26c1-1.45,1.12-3,1.58-4.59a.17.17,0,0,1,.3,0c1.43,3.32-1.33,7.21-3.87,9.43a21.76,21.76,0,0,1-2.15,1.64c-1,.69-3.36,1.68-3.09,3,.17.9,2,1.82,2.85,2.22a7.87,7.87,0,0,0,3.74.51c.41,0,.63.33.51.59-.83,1.89-4.08,1.16-5.81.26C753,301.24,751,299.72,751.6,297.65Z"/><path class="cls-36" d="M746,237.2c6.24-4.54,25.53-14.38,57.29-4.86,16.7,5,24.09,17.33,28.27,22.91,0,0,5.85,8.62-.35,7.67a151,151,0,0,1-15.37-3.74,14.38,14.38,0,0,0-12.17-1.4,16.33,16.33,0,0,0-2-.1c-7.88.13-16,3.63-27.95-.47S763,249,757.43,248.46s-17.28,18.77-17.28,18.77S739.76,241.73,746,237.2Z"/><path class="cls-38" d="M784.8,230.84s-13.69,2.48-9.18,8.32,35.3,17,35.3,17-11.48.07-14.58.83-34.78-10.13-39.29-17.54,15.45-10.76,20.57-10.08A38,38,0,0,1,784.8,230.84Z"/><path class="cls-39" d="M789.83,285.44s-6.36-.36-10.93-3.58-6-5.82-3.2-5.24,6.22,4.68,9.33,5.73S792.83,284.2,789.83,285.44Z"/><path class="cls-39" d="M744.91,277.2s5.79,1.4,10.71-.36,6.46-3.4,3.8-3.67-6.76,2.68-9.79,2.79S742.6,275.14,744.91,277.2Z"/><path class="cls-36" d="M813.39,269.45s-8.7,7-18.29,7.66-14.91-1.32-14.91-1.32,1.84-.34,6.54-1.17,8.45-5,8.45-5-9.86,5.72-19.36,5.21-11.32-1.23-11.32-1.23l6.89-1.73s-2.49,1.51-9.9-.11-13-2.77-13-2.77a34,34,0,0,1,8.85-7.74,38.06,38.06,0,0,1,9.7-3.71,33,33,0,0,0-12.52,3.25c-6.06,3.08-12.14,11.69-12.14,11.69s-3.08-6.05,1.46-14.11a36,36,0,0,1,10.47-11.88s5.15-.74,7.23.27,17.94,8.78,18.34,8.87S796.34,257,796.34,257s17.83-1.1,18.24-1,8.49,2.52,8.49,2.52l-2.16,10.13Z"/><path class="cls-36" d="M801.52,269.63s2.14,12.55,0,19.69c-3.7,12.31-10.33,16.76-10.33,16.76s9.32-5.79,11.63-8.7a27.16,27.16,0,0,0,3-4.32s-1.12,4.81-3.42,7.23-5.86,6.71-5.86,6.71a85.15,85.15,0,0,0,9.72-6.28c4.28-3.32,10.35-4.88,12.61-4.43a5.83,5.83,0,0,1,3.46,2.34s9.13-10.12,11.42-23.47,1.11-17.53-4.29-22.84S801.52,269.63,801.52,269.63Z"/><path class="cls-40" d="M754.58,286s-1-3.21-5.72-4.47-6.43,2.25-6.43,2.25.26.74.66.57a6.06,6.06,0,0,1,6.14-1.32c3.66,1.26,3.75,3.75,4.74,4S755.29,286.86,754.58,286Z"/><path class="cls-40" d="M773.71,290.66s2.6-2.13,8.12-1,5.86,5.48,5.86,5.48-.61.53-1,.19a8,8,0,0,0-6-4.51c-4.37-.58-5.75,1.3-6.9,1.08S772.59,291.08,773.71,290.66Z"/><polygon class="cls-40" points="787.68 295.13 791.74 294.11 786.46 293.04 787.68 295.13"/><polygon class="cls-40" points="742.66 284.22 740.14 282.12 743.88 282.72 742.66 284.22"/><path class="cls-41" d="M746,315.62s0-12.43,9.46-8.91,6.83,16.84,4.14,16.78-3.8-3.53-8.11-3.8S746.13,319.34,746,315.62Z"/><path class="cls-42" d="M748.57,318.61s.83-2.95,5.8-2.26a9.65,9.65,0,0,1,7,4.42s-.53,2.37-2.05,2.39-3.45-3.1-6.09-3.56-4.44-.3-4.65-.42S748.57,318.61,748.57,318.61Z"/><path class="cls-1" d="M796.2,349.21s22.26,1.08,23.7,3.29,3.8,87.61,3.8,87.61-3.12,14.28-34.6,12.35S746,439,746,439s-3.06-81.7-1.27-82.57S765.58,353,765.58,353Z"/><path class="cls-11" d="M761.68,353.52s.48,20.15,20.91,20.52,21.26-24.33,21.26-24.33-5.36-1.08-6.46-2.32a16.59,16.59,0,0,1-2.16-4.07l-11,4.76-9.6.55-9.13-1.37s-.25,3.24-1.57,4.48A12.62,12.62,0,0,1,761.68,353.52Z"/><path class="cls-43" d="M800.64,395.3c-5-10.22-14.64-3.31-16.71-1.38-2.07-1.93-11.74-8.84-16.71,1.38s16.71,26,16.71,26S805.61,405.52,800.64,395.3Z"/><path class="cls-36" d="M797,301.73s-21.14,13.38-16.15,26,13.8,18.32,14.22,26.25-6.65,6.69-7.95,14.86,7.95,12.89,7.95,12.89-4.33-2.53-1.56-7.69,8.42-5,12.14-10.89,2.15-10.65,2.15-10.65,7.62-.84,11.73,1.23,11.27,14.85,11.27,14.85,9.3-12.13,7.07-23.53-4-12.88-6-18.58,2.18-7,6.29-23.22.5-34.48-4.13-42.7S823.18,271,823.18,271Z"/><path class="cls-44" d="M781.87,291.9a.58.58,0,0,1,.65-.34,1,1,0,0,1,.68.58,1.42,1.42,0,0,1,2.39,1.41.75.75,0,0,1,.87.21,1,1,0,0,1,.37.83,2.08,2.08,0,0,1,2.27.54c1,1.07.21,1.79.21,1.79s1.64.34.93,1.45-1.74-.43-1.74-.43a1.49,1.49,0,0,1-1.61.28,1.8,1.8,0,0,1-1.24-1.34s-1.33.16-1.83-.65.31-1.76.31-1.76-.86.09-1.17-.39a1,1,0,0,1-.13-.91s-1.45.31-1.79-.44S781.87,291.9,781.87,291.9Z"/><path class="cls-44" d="M748.9,283.48a.48.48,0,0,0-.29-.53.91.91,0,0,0-.75.15,1,1,0,0,0-1-.93c-1-.15-1.27,1-1.27,1a.58.58,0,0,0-.7-.22,1,1,0,0,0-.64.47,1.62,1.62,0,0,0-1.83-.57c-1.19.37-.95,1.25-.95,1.25s-1.3-.45-1.32.69,1.41.41,1.41.41a1.18,1.18,0,0,0,1,.9,1.55,1.55,0,0,0,1.47-.47s.86.68,1.57.29.59-1.45.59-1.45.56.44,1,.21a1,1,0,0,0,.51-.63s.87.85,1.45.44S748.9,283.48,748.9,283.48Z"/><path class="cls-44" d="M788.84,300.58s2.23,2.34.81,3.58S788.84,300.58,788.84,300.58Z"/><path class="cls-44" d="M741.45,287.44s-3.41,0-2.54,1.88S741.45,287.44,741.45,287.44Z"/><path class="cls-44" d="M740.11,293.32s-4.86,2-2.81,3.9S740.11,293.32,740.11,293.32Z"/><path class="cls-44" d="M793.92,300.58s5,3.39,2.79,5.5S793.92,300.58,793.92,300.58Z"/><path class="cls-44" d="M784.26,308.75s.86,4.65-1.49,4.46S784.26,308.75,784.26,308.75Z"/><path class="cls-44" d="M734.14,289s-5.29,0-4.42,2.27S734.14,289,734.14,289Z"/><path class="cls-44" d="M805.05,282.12s11.4-5.38,12.23-7.53S814.74,273.18,805.05,282.12Z"/><path class="cls-44" d="M806.15,276.54a1.1,1.1,0,1,0-1.1,1.1A1.1,1.1,0,0,0,806.15,276.54Z"/><path class="cls-44" d="M732.91,272.54s-8.52-5.67-9.14-7.93S725.67,263.12,732.91,272.54Z"/><path class="cls-44" d="M732.09,266.66c0-.64.37-1.15.82-1.15s.82.51.82,1.15-.36,1.16-.82,1.16S732.09,267.3,732.09,266.66Z"/><path class="cls-30" d="M1438.11,118.2l-21-11.28s-10.83-32.57,25.87-30.78,55,42.06,36.69,65.77-38-6.26-38-6.26Z"/></svg>