<svg id="Layer_1" data-name="Layer 1" xmlns="http://www.w3.org/2000/svg" xmlns:xlink="http://www.w3.org/1999/xlink" viewBox="0 0 620 393"><defs><style>.cls-1{fill:none;}.cls-2{clip-path:url(#clip-path);}.cls-3{clip-path:url(#clip-path-2);}.cls-4{fill:url(#linear-gradient);}.cls-5{fill:#fff;}.cls-6{clip-path:url(#clip-path-4);}.cls-7{fill:url(#linear-gradient-2);}.cls-8{clip-path:url(#clip-path-5);}.cls-9{fill:url(#linear-gradient-3);}.cls-10{clip-path:url(#clip-path-6);}.cls-11{fill:url(#linear-gradient-4);}.cls-12{fill:#009bdb;}.cls-13{fill:#feee00;}.cls-14{fill:#a3bd31;}.cls-15{fill:#ba0a13;}</style><clipPath id="clip-path"><rect class="cls-1" x="-89" y="-106" width="792" height="612"/></clipPath><clipPath id="clip-path-2"><path class="cls-1" d="M240.71,45.49c-11.25,17.1-20,45.51-8.2,88.75,0,0-14-19.47-9.76-60.5a92.31,92.31,0,0,0-4.66,31.73c1.31,48.21,40,87.58,87.91,90,.92,0,41.53,2.92,73.84-30.76l.07-.07a92.39,92.39,0,0,0,8.54-112.19l6.49-5.55L387.46,51,380,55.1l-.43.24-8.41,15.4-8.42-15.4-15.4-8.42,15.4-8.42,4.79-8.76C352.59,18.12,334.07,10.26,314,10.25h0c-39.75,0-61.43,17.31-73.23,35.24"/></clipPath><linearGradient id="linear-gradient" x1="-89" y1="505.99" x2="-88" y2="505.99" gradientTransform="matrix(185.43, 0, 0, -185.43, 16721.53, 93931.65)" gradientUnits="userSpaceOnUse"><stop offset="0" stop-color="#e5b54c"/><stop offset="1" stop-color="#cb6223"/></linearGradient><clipPath id="clip-path-4"><polygon class="cls-1" points="407.45 62.55 401.88 65.6 407.45 68.65 410.5 74.23 413.56 68.65 419.14 65.6 413.56 62.55 410.5 56.98 407.45 62.55"/></clipPath><linearGradient id="linear-gradient-2" y1="506" y2="506" gradientTransform="matrix(17.26, 0, 0, -17.26, 1937.74, 8797.58)" xlink:href="#linear-gradient"/><clipPath id="clip-path-5"><polygon class="cls-1" points="361.81 9.76 359.02 11.29 361.81 12.81 363.33 15.6 364.86 12.81 367.65 11.29 364.86 9.76 363.33 6.97 361.81 9.76"/></clipPath><linearGradient id="linear-gradient-3" y1="506" y2="506" gradientTransform="matrix(8.63, 0, 0, -8.63, 1126.67, 4375.68)" xlink:href="#linear-gradient"/><clipPath id="clip-path-6"><polygon class="cls-1" points="395.3 18.97 393.14 20.15 395.3 21.32 396.47 23.48 397.65 21.32 399.8 20.15 397.65 18.97 396.47 16.82 395.3 18.97"/></clipPath><linearGradient id="linear-gradient-4" y1="506" y2="506" gradientTransform="matrix(6.67, 0, 0, -6.67, 986.48, 3393.51)" xlink:href="#linear-gradient"/></defs><title>logo-eureka</title><g class="cls-2"><path d="M102.59,171.29c9.38,0,14.54-5.17,14.54-14.55S112,142.2,102.59,142.2H24.7c-9.38,0-14.54,5.17-14.54,14.54V308.58c0,9.38,5.16,14.54,14.54,14.54h77.89c9.38,0,14.54-5.16,14.54-14.54S112,294,102.59,294H39.53V247.21h47c9.56,0,14.83-5.17,14.83-14.55,0-9.56-5.27-14.82-14.83-14.82h-47V171.29Zm102.47,46.83c-9.38,0-14.54,5.06-14.54,14.26v38.24c0,6.83-1.84,12.36-5.63,16.91A17.37,17.37,0,0,1,170.76,294a19.4,19.4,0,0,1-15.32-6.75,24.18,24.18,0,0,1-6.13-16.76V232.14c0-9-5.16-14-14.54-14-9.56,0-14.83,5-14.83,14v38.35c0,14.64,4.87,27.2,14.47,37.32s21.87,15.32,36.35,15.32c7.48,0,14.51-2.85,20.94-8.49a13,13,0,0,0,3.54,4.69,15.68,15.68,0,0,0,10.38,3.8c9,0,14-5.16,14-14.54v-76.2c0-9.2-5.17-14.26-14.55-14.26m70.39-.28a23.52,23.52,0,0,0-17.36,7.52c-2.06-4.9-6.61-7.52-13.29-7.52-9.38,0-14.54,5.07-14.54,14.29v76.41c0,9.77,5.16,15.15,14.54,15.15s14.54-5.37,14.54-15.09c0,0,.28-37.76.28-38,0-6.68,1.54-12.41,4.57-17,2.81-4.29,6.49-6.37,11.26-6.37,8.87,0,9.72,3.55,10,4.74,1.84,7.38,6.74,11.28,14.17,11.28a14.53,14.53,0,0,0,9.86-3.7,13,13,0,0,0,4.4-10.28,17.5,17.5,0,0,0-.67-4.74c-4.88-17.7-17.59-26.67-37.77-26.67m92.09,0c-14.5,0-26.6,5.15-36,15.31s-14,22.69-14,37.47c0,14.59,4.72,27.11,14,37.19s21.46,15.31,36,15.31c17.3,0,31.29-7.83,41.59-23.27l.1-.16.09-.16a17.56,17.56,0,0,0,2-7.82,14.79,14.79,0,0,0-14.54-14.83c-4.94,0-9.12,2.42-12.08,7-4.51,6.85-10.12,10.18-17.16,10.18A17.2,17.2,0,0,1,354,288.15a29.1,29.1,0,0,1-6.35-11.7h55c9.38,0,14.55-5.17,14.55-14.54s-4.55-18.81-13.5-28c-10.29-10.68-22.47-16.1-36.19-16.1m-16,34.55c3.66-4.23,7.9-6.3,12.85-6.3s9.4,2.07,13.44,6.3Zm153.88-11.86a14.53,14.53,0,0,0-4-10.05,13.11,13.11,0,0,0-9.94-4.49,13.63,13.63,0,0,0-8.21,2.86L454,249V171.91c0-9.19-5-14.25-14-14.25s-14,5.07-14,14.27V308.58c0,9.2,5,14.26,14,14.26s14-5.06,14-14.26v-8.85l29.66,20.64a14.32,14.32,0,0,0,7.82,2.47,13.09,13.09,0,0,0,10-4.52,14.64,14.64,0,0,0,4-10.12A13.36,13.36,0,0,0,499.35,297l-31.49-22.61,31.55-22.64a13.35,13.35,0,0,0,6.06-11.19m91.37-22.69c-7,0-11.69,2.9-13.59,8.3-6.37-5.52-13.32-8.3-20.72-8.3-14.49,0-26.72,5.2-36.36,15.47s-14.46,22.82-14.46,37.45,4.87,27.21,14.47,37.32,21.87,15.33,36.35,15.33c7.49,0,14.51-2.92,20.94-8.68a13.46,13.46,0,0,0,3.31,4.65,14.51,14.51,0,0,0,10.06,4c9.37,0,14.54-5.28,14.54-14.87V232.13c0-9.22-5.17-14.29-14.54-14.29m-20.36,69.84a16.79,16.79,0,0,1-14,6.64,19.35,19.35,0,0,1-15.31-6.76,24.21,24.21,0,0,1-6.14-16.8c0-6.83,2-12.36,6.12-16.92a19.57,19.57,0,0,1,15.33-6.63,16.94,16.94,0,0,1,14,6.51c3.72,4.58,5.52,10.15,5.52,17,0,6.71-1.81,12.24-5.53,16.92"/></g><g class="cls-3"><rect class="cls-4" x="217.79" y="10.25" width="186.08" height="188.16"/></g><g class="cls-2"><path class="cls-5" d="M339.16,169.89c.27-.06.55-.11.83-.15,0,.14.07.28.11.42a53.92,53.92,0,0,0,7.56-2.28,39.14,39.14,0,0,1-12,21.45,23.3,23.3,0,0,1-9.47,4.92c12.94-2.1,33.46-8.61,53.06-28.28a3.75,3.75,0,0,1-1.67.44c-1.22-.08-3.82-1-4.38-3.22-.75-3-1.62-6-2.45-9a6,6,0,0,1-.32-2,6.13,6.13,0,0,1,.47-1.86l2.61-7.11-.42-.21a14.32,14.32,0,0,0,1.13-3.24q2.44-9.91,4.89-19.83c1-4,2-8.09,4.07-11.67a5.72,5.72,0,0,1,1.59-1.89,6.88,6.88,0,0,1,2.35-.84c1.71-.35,3-.58,4.71-.94a4.59,4.59,0,0,0,2.3-1,1.56,1.56,0,0,0,.15-2.22c-.51-.46-.71-.43-1.56-.36a61.39,61.39,0,0,0-6.81,1.29c1.79-1,2.95-1.68,4.74-2.68,1.2-.67,2.59-2,1.85-3.17s-7.3,1.18-9.8,3.17c2.33-2.13,7.63-5.46,6.14-7-.81-1.14-8.09,2.07-10.59,5.2-.8-1.8-2.71-4.53-4.66-5.28a1.37,1.37,0,0,0-1.67.68,1.86,1.86,0,0,0,.06,1.33c1,3,3,4,3.92,8.41a18.17,18.17,0,0,1-.2,7.27c-2.13,9.76-5.66,19.12-9.35,28.4l-.73-.53c-1.72,4.16-3.54,8.46-6.82,11.53a16.72,16.72,0,0,1-1.46,1.18l-2-2.45a34.68,34.68,0,0,0,7.35-10.27c4.76-10.34,4.07-22.43,1.5-33.55a6.07,6.07,0,0,0,4.78-4.13,4.92,4.92,0,0,0-2.4-5.67,4.12,4.12,0,0,0-5.25,1.77c-2-5.17-4.29-10.24-8-14.27-4.58-4.95-11.94-8-18.22-5.6-3.38,1.29-6,4-8.54,6.59-6.2-3.57-14.2-2.19-20.63.93-6.58,3.18-12.28,8-18.89,11.12a43.06,43.06,0,0,1-20.18,4.09,21.81,21.81,0,0,0,16.72,6.64,51.54,51.54,0,0,1-21.82,6.47,19.15,19.15,0,0,0,12.64,3.62A37.71,37.71,0,0,1,259,121.28c5.13,5.8,13.58,7.84,21.22,6.67a29.13,29.13,0,0,0,3.06-.63,30.29,30.29,0,0,0,4.24,9.54,21.18,21.18,0,0,0,7.06,6.46,5.92,5.92,0,0,0-3.72,2.36,4,4,0,0,0,1.09,5.13c2.51,1.67,6.12.21,7.75-.95a1.91,1.91,0,0,1,1-.45,1.76,1.76,0,0,1,1.08.49c9.43,7.26,21.85,10.78,33.54,8.78A38.56,38.56,0,0,0,348.1,154c.37.68.77,1.37,1.17,2.06a57.7,57.7,0,0,1-11.3,5.8c.06.28.13.56.21.85a129.55,129.55,0,0,1-24.28,4.28c-4.64.34-10.44-.49-14.24-3.2-1.8-1.3-2.06-1.64-4.06-3.11a1.69,1.69,0,0,0-1.31-.27,1.44,1.44,0,0,0-1,1.53,3.46,3.46,0,0,0,.77,1.79,14.94,14.94,0,0,0,3.59,3.55c-3.51,1.94-8.86,6.79-8.09,8.53,1.18,1.44,5.66-2.17,8.53-4.33-2.7,2.75-5.93,8.59-5.21,9.66s2.54-.21,3.42-1.27l3.89-4.77a32.38,32.38,0,0,0-2.43,6.48c-.17.66-.25.86.11,1.45a1.6,1.6,0,0,0,2.24.23,4.64,4.64,0,0,0,1.32-2.11c.64-1.62,1.07-2.7,1.72-4.32a6.47,6.47,0,0,1,1.21-2.18,5.75,5.75,0,0,1,2.15-1.23c3.88-1.44,9.23-1,13.37-1.35,6.79-.48,12.34-.69,19.23-2.13"/><polygon class="cls-5" points="284.19 77.86 282.83 80.37 281.46 77.86 278.95 76.5 281.46 75.13 282.83 72.63 284.19 75.13 286.7 76.5 284.19 77.86"/><polygon class="cls-5" points="293.88 36.86 291.99 40.36 290.07 36.86 286.57 34.95 290.07 33.03 291.99 29.54 293.88 33.03 297.38 34.95 293.88 36.86"/><polygon class="cls-5" points="324.89 58.7 321.2 65.45 317.51 58.7 310.77 55.02 317.51 51.33 321.2 44.58 324.89 51.33 331.62 55.02 324.89 58.7"/></g><g class="cls-6"><rect class="cls-7" x="401.88" y="56.98" width="17.26" height="17.26"/></g><g class="cls-8"><rect class="cls-9" x="359.02" y="6.98" width="8.63" height="8.63"/></g><g class="cls-10"><rect class="cls-11" x="393.14" y="16.82" width="6.67" height="6.66"/></g><g class="cls-2"><path class="cls-12" d="M102.59,168.27q11.52,0,11.53-11.53t-11.53-11.52H24.7q-11.53,0-11.53,11.52V308.58q0,11.52,11.53,11.53h77.89q11.52,0,11.53-11.53t-11.53-11.53H36.51V244.19H86.56q11.81,0,11.81-11.53,0-11.81-11.81-11.81H36.51V168.27Zm102.47,52.86q-11.53,0-11.53,11.25v38.24q0,11.25-6.32,18.84a20.41,20.41,0,0,1-16.45,7.59,22.45,22.45,0,0,1-17.58-7.76,27.29,27.29,0,0,1-6.89-18.76V232.14q0-11-11.52-11-11.82,0-11.81,11v38.35q0,20.86,13.63,35.25t34.17,14.38q12.36,0,22.77-11.53a10.48,10.48,0,0,0,3.66,8.44,12.65,12.65,0,0,0,8.43,3.09q11,0,11-11.53v-76.2q0-11.24-11.53-11.25"/><path class="cls-13" d="M275.45,220.85q-11.54,0-19.12,11.53,0-11.52-11.53-11.53t-11.53,11.28v76.41q0,12.13,11.53,12.13t11.53-12.09q.27-37.4.28-38,0-11,5.06-18.7t13.78-7.73q11.24,0,12.93,7,2.25,9,11.25,9a11.58,11.58,0,0,0,7.87-3,10.08,10.08,0,0,0,3.38-8,14.17,14.17,0,0,0-.57-3.94q-6.74-24.45-34.86-24.46m138.76,41q0-12.93-12.65-25.86-14.62-15.19-34-15.19-20.54,0-33.74,14.34t-13.22,35.43q0,20.82,13.22,35.15t33.74,14.34q24.46,0,39.08-21.93a14.52,14.52,0,0,0,1.69-6.47,11.77,11.77,0,0,0-11.53-11.81q-5.91,0-9.56,5.62-7.59,11.53-19.68,11.53a20.2,20.2,0,0,1-15.75-6.89,32.6,32.6,0,0,1-7.87-16.73h58.76q11.54,0,11.53-11.53m-68.46-6.5q7.33-12.32,18.69-12.33t19.69,12.33Z"/><path class="cls-14" d="M502.45,240.53a11.55,11.55,0,0,0-3.23-8,10.12,10.12,0,0,0-7.71-3.51,10.63,10.63,0,0,0-6.45,2.3L451,254.72V171.91q0-11.24-11-11.23t-11,11.25V308.58q0,11.25,11,11.25t11-11.25V294l34.3,23.88a11.4,11.4,0,0,0,6.19,2,10.14,10.14,0,0,0,7.73-3.54,11.7,11.7,0,0,0,3.23-8.09,10.31,10.31,0,0,0-4.85-8.78l-34.91-25.06,35-25.11a10.24,10.24,0,0,0,4.78-8.72m94.39-19.68q-11.54,0-11.53,11.53-10.41-11.52-22.78-11.53-20.52,0-34.16,14.53t-13.64,35.38q0,20.87,13.64,35.25t34.16,14.38q12.38,0,22.78-11.81a11.12,11.12,0,0,0,3.51,8.58,11.52,11.52,0,0,0,8,3.23q11.52,0,11.52-11.85V232.13q0-11.28-11.52-11.28m-18,68.71a19.81,19.81,0,0,1-16.31,7.77A22.39,22.39,0,0,1,545,289.56a27.32,27.32,0,0,1-6.89-18.8q0-11.31,6.89-18.94a22.59,22.59,0,0,1,17.57-7.63,20,20,0,0,1,16.31,7.63q6.18,7.64,6.19,18.94a29.28,29.28,0,0,1-6.19,18.8"/><path class="cls-15" d="M10.2,370.6V341.83a11.94,11.94,0,0,1,11.94-11.94H599.4a11.94,11.94,0,0,1,11.94,11.94V370.6a12,12,0,0,1-11.94,11.94H22.14A12,12,0,0,1,10.2,370.6"/><path class="cls-5" d="M41.14,358.79h16v-5.15h-16V343.7H57.49v-5.1H36v35.28H57.54v-5.1H41.14ZM72.53,338.6H59.86v35.28H72.53c11.56,0,17.36-8.78,17.36-17.62s-5.8-17.66-17.36-17.66m0,30.18H65V343.7h7.57c8.18,0,12.32,6.31,12.32,12.56s-4.14,12.52-12.32,12.52m41.18-5.5c0,3.89-4.18,5.85-7.87,5.85s-7.92-1.91-7.92-5.8V338.6H92.77v24.68c0,7.22,6.86,11,13.07,11,6.06,0,13-3.73,13-10.9V338.6h-5.15Zm37-2.63a12.16,12.16,0,0,1-20.39,4.65,13,13,0,0,1,0-18.07,12,12,0,0,1,8.68-3.79,11.51,11.51,0,0,1,11.41,8h5c-2-8-8.37-13-16.45-13a17,17,0,0,0-12.21,5.25,18.28,18.28,0,0,0,0,25.23A16.81,16.81,0,0,0,139,374.13c8.23,0,14.69-5.45,16.71-13.48Zm18.72-22.56-14.18,35.79h5.5c1.11-2.93,2.88-7.17,4.24-10.4h12.67l4.24,10.4h5.45l-14.18-35.79Zm-2.52,20.6,4.44-12.47,4.34,12.47Zm15-15h10.7V374h5.1V343.7h10.65v-5.15H181.9Zm28.21-.05h6.56v25.13h-6.56v5.1h18.22v-5.1h-6.56V343.65h6.56v-5H210.11Zm36.24-5.56a17.89,17.89,0,0,0-12.72,5.35,18.16,18.16,0,0,0,0,25.54,17.86,17.86,0,0,0,25.49,0,18.16,18.16,0,0,0,0-25.54,18,18,0,0,0-12.77-5.35m9.14,27.26a13,13,0,0,1-9.14,3.83,12.66,12.66,0,0,1-9-3.83,12.9,12.9,0,0,1,0-18.27,12.67,12.67,0,0,1,9-3.84,13,13,0,0,1,9.14,22.11m33.21-1.92-17.22-24.88-3.93-.05v35.38h5.09V349.2l17.06,24.68h4V338.55h-5Zm21.6-25.34-14.18,35.79h5.5c1.11-2.93,2.88-7.17,4.24-10.4h12.67l4.24,10.4h5.45L314,338.09Zm-2.52,20.6,4.44-12.47,4.34,12.47Zm27.82,10.09V338.6h-5.1v35.28h21.7v-5.1Z"/><path class="cls-5" d="M379.59,338.09l-14.18,35.79h5.5c1.11-2.93,2.88-7.17,4.24-10.4h12.67l4.24,10.4h5.45l-14.18-35.79Zm-2.52,20.6,4.44-12.47,4.34,12.47Zm48.8,2a12.16,12.16,0,0,1-20.39,4.65,13.06,13.06,0,0,1,0-18.07,12,12,0,0,1,8.68-3.79,11.51,11.51,0,0,1,11.41,8h5.05c-2-8-8.38-13-16.46-13A17,17,0,0,0,402,343.65a18.28,18.28,0,0,0,0,25.23,16.84,16.84,0,0,0,12.21,5.25c8.23,0,14.69-5.45,16.71-13.48Zm18.73-22.56-14.18,35.79h5.5c1.11-2.93,2.87-7.17,4.24-10.4h12.66l4.24,10.4h5.45l-14.18-35.79Zm-2.53,20.6,4.44-12.47,4.35,12.47Zm34.78-20.09H464.18v35.28h12.67c11.56,0,17.36-8.78,17.36-17.62s-5.8-17.66-17.36-17.66m0,30.18h-7.57V343.7h7.57c8.17,0,12.31,6.31,12.31,12.56s-4.14,12.52-12.31,12.52m25.08-10h16v-5.15h-16V343.7h16.35v-5.1h-21.5v35.28h21.55v-5.1h-16.4Zm34.62-3.08-11.66-17.16h-4.13v35.33h5.09V349l9.24,13.72H538L547.2,349v24.88h5V338.55h-4Zm42.94-17.11-9.64,15.49-9.64-15.49h-6l13.07,20.89v14.39h5.15V359.49l13.12-20.89Z"/></g></svg>