<svg id="Layer_1" data-name="Layer 1" xmlns="http://www.w3.org/2000/svg" xmlns:xlink="http://www.w3.org/1999/xlink"
     viewBox="0 0 884 260">
    <defs>
        <style>
            .cls-1{fill:none;}.cls-2{clip-path:url(#clip-path);}.cls-3{fill:url(#linear-gradient);}.cls-4{fill:#fff;}.cls-5{clip-path:url(#clip-path-2);}.cls-6{fill:url(#linear-gradient-2);}.cls-7{clip-path:url(#clip-path-3);}.cls-8{fill:url(#linear-gradient-3);}.cls-9{clip-path:url(#clip-path-4);}.cls-10{fill:url(#linear-gradient-4);}.cls-11{fill:#ba0a13;}.cls-12{fill:#009bdb;}.cls-12,.cls-13,.cls-14{stroke:#211915;stroke-miterlimit:10;stroke-width:3px;}.cls-13{fill:#feee00;}.cls-14{fill:#a3bd31;}
        </style>
        <clipPath id="clip-path">
            <path class="cls-1"
                  d="M35.65,53.74C20.93,76.12,9.48,113.29,24.91,169.87c0,0-18.32-25.46-12.77-79.17a120.73,120.73,0,0,0-6.09,41.53c1.71,63.09,52.4,114.6,115,117.81,1.21.06,54.36,3.81,96.63-40.26l.1-.1A120.94,120.94,0,0,0,229,62.87l8.49-7.26L227.69,61l-9.79,5.37-.57.31-11,20.14-11-20.14-20.15-11,20.15-11,6.26-11.46c-19.51-15.21-43.75-25.5-70-25.51h-.05c-52,0-80.39,22.65-95.82,46.12"/>
        </clipPath>
        <linearGradient id="linear-gradient" x1="23.24" y1="67.5" x2="24.55" y2="67.5"
                        gradientTransform="matrix(185.43, 0, 0, -185.43, -4303.75, 12647.17)"
                        gradientUnits="userSpaceOnUse">
            <stop offset="0" stop-color="#e5b54c"/>
            <stop offset="1" stop-color="#cb6223"/>
        </linearGradient>
        <clipPath id="clip-path-2">
            <polygon class="cls-1"
                     points="194.12 6.98 190.47 8.98 194.12 10.97 196.11 14.62 198.1 10.97 201.75 8.98 198.1 6.98 196.11 3.34 194.12 6.98"/>
        </clipPath>
        <linearGradient id="linear-gradient-2" x1="-7.76" y1="19.72" x2="-6.45" y2="19.72"
                        gradientTransform="matrix(8.63, 0, 0, -8.63, 257.39, 179.06)" xlink:href="#linear-gradient"/>
        <clipPath id="clip-path-3">
            <polygon class="cls-1"
                     points="237.94 19.03 235.12 20.58 237.94 22.11 239.48 24.94 241.02 22.11 243.84 20.58 241.02 19.03 239.48 16.22 237.94 19.03"/>
        </clipPath>
        <linearGradient id="linear-gradient-3" x1="-15.8" y1="4.54" x2="-14.49" y2="4.54"
                        gradientTransform="matrix(6.67, 0, 0, -6.67, 340.47, 50.82)" xlink:href="#linear-gradient"/>
        <clipPath id="clip-path-4">
            <polygon class="cls-1"
                     points="253.85 76.07 246.56 80.06 253.85 84.05 257.84 91.35 261.83 84.05 269.14 80.06 261.83 76.07 257.84 68.77 253.85 76.07"/>
        </clipPath>
        <linearGradient id="linear-gradient-4" x1="9.39" y1="43.9" x2="10.7" y2="43.9"
                        gradientTransform="matrix(17.26, 0, 0, -17.26, 84.46, 837.59)" xlink:href="#linear-gradient"/>
    </defs>
    <title>logo-eureka-left</title>
    <g id="LOGO">
        <g id="boy">
            <g class="cls-2">
                <rect class="cls-3" x="5.65" y="7.62" width="243.51" height="246.23"/>
            </g>
            <path class="cls-4"
                  d="M164.48,216.52l1.09-.19a5.54,5.54,0,0,0,.14.55,71.22,71.22,0,0,0,9.89-3A51.21,51.21,0,0,1,159.87,242a30.45,30.45,0,0,1-12.4,6.43c16.94-2.74,43.79-11.26,69.44-37a4.77,4.77,0,0,1-2.19.57c-1.59-.09-5-1.33-5.72-4.2-1-3.94-2.12-7.85-3.21-11.75a7.87,7.87,0,0,1-.42-2.63A8.06,8.06,0,0,1,206,191c1.13-3.11,2.27-6.2,3.42-9.3l-.56-.28a18.4,18.4,0,0,0,1.48-4.24q3.19-13,6.4-25.95c1.29-5.24,2.61-10.58,5.33-15.27a7.46,7.46,0,0,1,2.08-2.48,8.67,8.67,0,0,1,3.07-1.09c2.24-.46,3.94-.76,6.17-1.23a6.06,6.06,0,0,0,3-1.26,2.05,2.05,0,0,0,.21-2.91c-.68-.6-.94-.55-2.05-.47-3,.22-5.94,1.13-8.91,1.69,2.35-1.32,3.86-2.2,6.2-3.51,1.57-.87,3.39-2.62,2.42-4.14s-9.55,1.54-12.82,4.14c3-2.79,10-7.14,8-9.1-1.07-1.5-10.59,2.71-13.87,6.8-1-2.36-3.54-5.93-6.09-6.91a1.81,1.81,0,0,0-2.19.89,2.43,2.43,0,0,0,.08,1.74c1.25,4,4,5.18,5.13,11a24,24,0,0,1-.26,9.51c-2.79,12.78-7.4,25-12.24,37.16l-.95-.68c-2.25,5.44-4.63,11.06-8.93,15.08a21.65,21.65,0,0,1-1.9,1.54l-2.68-3.2a45.19,45.19,0,0,0,9.62-13.44c6.23-13.54,5.33-29.36,2-43.91a8,8,0,0,0,6.25-5.41,6.44,6.44,0,0,0-3.14-7.41,5.41,5.41,0,0,0-6.87,2.32c-2.61-6.77-5.61-13.4-10.5-18.68-6-6.47-15.62-10.47-23.85-7.33-4.42,1.69-7.89,5.18-11.17,8.62-8.11-4.66-18.57-2.85-27,1.23-8.6,4.15-16.06,10.42-24.71,14.54a56.19,56.19,0,0,1-26.41,5.35,28.49,28.49,0,0,0,21.87,8.7,67.28,67.28,0,0,1-28.54,8.46,25.13,25.13,0,0,0,16.53,4.75,49.51,49.51,0,0,1-20.09,6.63c6.71,7.58,17.77,10.26,27.77,8.72a36.84,36.84,0,0,0,4-.82,39.61,39.61,0,0,0,5.55,12.49,27.76,27.76,0,0,0,9.24,8.45,7.74,7.74,0,0,0-4.87,3.09,5.29,5.29,0,0,0,1.42,6.71c3.29,2.19,8,.27,10.14-1.24a2.67,2.67,0,0,1,1.3-.6,2.48,2.48,0,0,1,1.42.65c12.34,9.5,28.59,14.11,43.89,11.48a50.16,50.16,0,0,0,16.78-6.18c.5.89,1,1.79,1.53,2.7A76,76,0,0,1,162.91,206c.09.37.18.73.28,1.1a167.11,167.11,0,0,1-31.77,5.6c-6.07.46-13.66-.64-18.64-4.18-2.35-1.69-2.68-2.15-5.3-4.07a2.23,2.23,0,0,0-1.72-.35,1.89,1.89,0,0,0-1.25,2,4.63,4.63,0,0,0,1,2.34,19.58,19.58,0,0,0,4.7,4.65c-4.59,2.54-11.6,8.88-10.58,11.15,1.55,1.9,7.41-2.83,11.15-5.65-3.52,3.59-7.75,11.23-6.82,12.64s3.34-.27,4.48-1.67c1.7-2.07,3.4-4.14,5.09-6.23a42.22,42.22,0,0,0-3.17,8.47c-.22.87-.33,1.12.15,1.9a2.1,2.1,0,0,0,2.92.3,6.11,6.11,0,0,0,1.73-2.76c.84-2.12,1.39-3.53,2.24-5.65A8.63,8.63,0,0,1,119,222.7a7.41,7.41,0,0,1,2.82-1.62c5.07-1.88,12.08-1.36,17.49-1.76,8.89-.63,16.15-.9,25.17-2.8"/>
            <polygon class="cls-4"
                     points="92.55 96.1 90.76 99.38 88.97 96.1 85.69 94.31 88.97 92.53 90.76 89.25 92.55 92.53 95.83 94.31 92.55 96.1"/>
            <g class="cls-5">
                <rect class="cls-6" x="190.47" y="3.34" width="11.29" height="11.29"/>
            </g>
            <g class="cls-7">
                <rect class="cls-8" x="235.11" y="16.22" width="8.72" height="8.72"/>
            </g>
            <g class="cls-9">
                <rect class="cls-10" x="246.55" y="68.77" width="22.58" height="22.58"/>
            </g>
        </g>
        <path class="cls-11"
              d="M274.2,238.6V209.83a11.94,11.94,0,0,1,11.94-11.94H863.4a11.94,11.94,0,0,1,11.94,11.94V238.6a12,12,0,0,1-11.94,11.94H286.14A12,12,0,0,1,274.2,238.6"/>
        <path class="cls-4"
              d="M305.14,226.79h16v-5.15h-16V211.7h16.35v-5.1H300v35.28h21.55v-5.1h-16.4Zm31.39-20.19H323.86v35.28h12.67c11.56,0,17.36-8.78,17.36-17.62s-5.8-17.66-17.36-17.66m0,30.18H329V211.7h7.57c8.18,0,12.32,6.31,12.32,12.56s-4.14,12.52-12.32,12.52m41.18-5.5c0,3.89-4.18,5.85-7.87,5.85s-7.92-1.91-7.92-5.8V206.6h-5.15v24.68c0,7.22,6.86,10.95,13.07,10.95s13-3.73,13-10.9V206.6h-5.15Zm37-2.63a12.16,12.16,0,0,1-20.39,4.65,13,13,0,0,1,0-18.07,12,12,0,0,1,8.68-3.79,11.51,11.51,0,0,1,11.41,8h5c-2-8-8.37-13-16.45-13a17,17,0,0,0-12.21,5.25,18.28,18.28,0,0,0,0,25.23A16.81,16.81,0,0,0,403,242.13c8.23,0,14.69-5.45,16.71-13.48Zm18.72-22.56-14.18,35.79h5.5c1.11-2.93,2.88-7.17,4.24-10.4h12.67l4.24,10.4h5.45l-14.18-35.79Zm-2.52,20.6,4.44-12.47,4.34,12.47Zm15-15h10.7V242h5.1V211.7h10.65v-5.15H445.9Zm28.21,0h6.56v25.13h-6.56v5.1h18.22v-5.1h-6.56V211.65h6.56V206.6H474.11Zm36.24-5.56a17.89,17.89,0,0,0-12.72,5.35,18.16,18.16,0,0,0,0,25.54,17.86,17.86,0,0,0,25.49,0,18.16,18.16,0,0,0,0-25.54,18,18,0,0,0-12.77-5.35m9.14,27.26a13,13,0,0,1-9.14,3.83,12.66,12.66,0,0,1-9-3.83,12.9,12.9,0,0,1,0-18.27,12.67,12.67,0,0,1,9-3.84,13,13,0,0,1,9.14,22.11m33.21-1.92-17.22-24.88-3.93-.05v35.38h5.09V217.2l17.06,24.68h4V206.55h-5Zm21.6-25.34-14.18,35.79h5.5c1.11-2.93,2.88-7.17,4.24-10.4h12.67l4.24,10.4h5.45L578,206.09Zm-2.52,20.6,4.44-12.47,4.34,12.47Zm27.82,10.09V206.6h-5.1v35.28h21.7v-5.1Z"/>
        <path class="cls-4"
              d="M643.59,206.09l-14.18,35.79h5.5c1.11-2.93,2.88-7.17,4.24-10.4h12.67l4.24,10.4h5.45l-14.18-35.79Zm-2.52,20.6,4.44-12.47,4.34,12.47Zm48.8,2a12.16,12.16,0,0,1-20.39,4.65,13.06,13.06,0,0,1,0-18.07,12,12,0,0,1,8.68-3.79,11.51,11.51,0,0,1,11.41,8h5c-2-8-8.38-13-16.46-13A17,17,0,0,0,666,211.65a18.28,18.28,0,0,0,0,25.23,16.84,16.84,0,0,0,12.21,5.25c8.23,0,14.69-5.45,16.71-13.48Zm18.73-22.56-14.18,35.79h5.5c1.11-2.93,2.87-7.17,4.24-10.4h12.66l4.24,10.4h5.45l-14.18-35.79Zm-2.53,20.6,4.44-12.47,4.35,12.47Zm34.78-20.09H728.18v35.28h12.67c11.56,0,17.36-8.78,17.36-17.62s-5.8-17.66-17.36-17.66m0,30.18h-7.57V211.7h7.57c8.17,0,12.31,6.31,12.31,12.56s-4.14,12.52-12.31,12.52m25.08-10h16v-5.15h-16V211.7h16.35v-5.1h-21.5v35.28h21.55v-5.1h-16.4Zm34.62-3.08-11.66-17.16h-4.13v35.33h5.09V217l9.24,13.72H802L811.2,217v24.88h5V206.55h-4Zm42.94-17.11-9.64,15.49-9.64-15.49h-6l13.07,20.89v14.39h5.15V227.49l13.12-20.89Z"/>
        <path class="cls-12"
              d="M368.59,29.27q11.52,0,11.53-11.53T368.59,6.22H290.7q-11.54,0-11.53,11.52V169.58q0,11.52,11.53,11.53h77.89q11.52,0,11.53-11.53t-11.53-11.53H302.51V105.19h50.05q11.81,0,11.81-11.53,0-11.8-11.81-11.81H302.51V29.27ZM471.06,82.13q-11.54,0-11.53,11.25v38.24q0,11.25-6.32,18.84a20.41,20.41,0,0,1-16.45,7.59,22.45,22.45,0,0,1-17.58-7.76,27.29,27.29,0,0,1-6.89-18.76V93.14q0-11-11.52-11-11.82,0-11.81,11v38.35q0,20.86,13.63,35.25t34.17,14.38q12.36,0,22.77-11.53a10.48,10.48,0,0,0,3.66,8.44,12.65,12.65,0,0,0,8.43,3.09q11,0,11-11.53V93.38q0-11.23-11.53-11.25"/>
        <path class="cls-13"
              d="M541.45,81.85q-11.54,0-19.12,11.53,0-11.52-11.53-11.53T499.27,93.13v76.41q0,12.14,11.53,12.13t11.53-12.09q.27-37.4.28-38,0-11,5.06-18.7t13.78-7.73q11.24,0,12.93,7,2.25,9,11.25,9a11.58,11.58,0,0,0,7.87-3,10.08,10.08,0,0,0,3.38-8,14.17,14.17,0,0,0-.57-3.94q-6.73-24.45-34.86-24.46M680.21,122.9q0-12.93-12.65-25.86-14.62-15.2-34-15.19-20.53,0-33.74,14.34t-13.22,35.43q0,20.82,13.22,35.15t33.74,14.34q24.47,0,39.08-21.93a14.52,14.52,0,0,0,1.69-6.47,11.77,11.77,0,0,0-11.53-11.81q-5.91,0-9.56,5.62-7.59,11.53-19.68,11.53a20.2,20.2,0,0,1-15.75-6.89,32.6,32.6,0,0,1-7.87-16.73h58.76q11.54,0,11.53-11.53m-68.46-6.5q7.34-12.32,18.69-12.33t19.69,12.33Z"/>
        <path class="cls-14"
              d="M768.45,101.53a11.55,11.55,0,0,0-3.23-8A10.12,10.12,0,0,0,757.51,90a10.63,10.63,0,0,0-6.45,2.3L717,115.72V32.91q0-11.23-11-11.23t-11,11.25V169.58q0,11.25,11,11.25t11-11.25V155l34.3,23.88a11.4,11.4,0,0,0,6.19,2,10.14,10.14,0,0,0,7.73-3.54,11.7,11.7,0,0,0,3.23-8.09,10.31,10.31,0,0,0-4.85-8.78l-34.91-25.06,35-25.11a10.24,10.24,0,0,0,4.78-8.72m94.39-19.68q-11.54,0-11.53,11.53Q840.9,81.86,828.53,81.85q-20.52,0-34.16,14.53t-13.64,35.38q0,20.87,13.64,35.25t34.16,14.38q12.38,0,22.78-11.81a11.12,11.12,0,0,0,3.51,8.58,11.52,11.52,0,0,0,8,3.23q11.52,0,11.52-11.85V93.13q0-11.28-11.52-11.28m-18,68.71a19.81,19.81,0,0,1-16.31,7.77A22.39,22.39,0,0,1,811,150.56a27.32,27.32,0,0,1-6.89-18.8q0-11.31,6.89-18.94a22.59,22.59,0,0,1,17.57-7.63,20,20,0,0,1,16.31,7.63q6.18,7.64,6.19,18.94a29.28,29.28,0,0,1-6.19,18.8"/>
    </g>
</svg>
